{"title":"Star Wars Rebels S02E09 Legacy 1080P WEB-DL DD5 1 H 264","uid":12958301,"size":959990045,"categoryP":"video","categoryS":"hd___tv_shows","magnet":"?xt=urn:btih:5eee6061b06c5929a2713f534ea4ca2b5f3d5991&amp;dn=Star+Wars+Rebels+S02E09+Legacy+1080P+WEB-DL+DD5+1+H+264&amp;tr=udp%3A%2F%2Ftracker.leechers-paradise.org%3A6969&amp;tr=udp%3A%2F%2Fzer0day.ch%3A1337&amp;tr=udp%3A%2F%2Fopen.demonii.com%3A1337&amp;tr=udp%3A%2F%2Ftracker.coppersurfer.tk%3A6969&amp;tr=udp%3A%2F%2Fexodus.desync.com%3A6969","seeders":3,"leechers":1,"uploader":"jmanwf","files":2,"time":1449814771,"description":"Ezra receives a Force vision about his parents and travels with Kanan to Lothal to investigate while The rebel crew of the Ghost is forced to leave Lothal in order to survive the growing Imperial oppression. Striving to make a greater impact, Ezra, Kanan, Sabine, Hera, Zeb and Chopper, join with another rebel cell, seeking out new allies and additional resources to build their fledgling fleet and help those in need. However, a terrifying new threat has emerged in the form of Sith Lord Darth Vader, as well as new Inquisitors, who have been sent to defeat the Jedi and crush the growing rebellion.\r\n\r\n\r\nVideo\r\nID : 2\r\nFormat : AVC\r\nFormat/Info : Advanced Video Codec\r\nFormat profile :   \r\nFormat settings, CABAC : Yes\r\nFormat settings, ReFrames : 4 frames\r\nCodec ID : avc1\r\nCodec ID/Info : Advanced Video Coding\r\nDuration : 22mn 7s\r\nBit rate : 5 272 Kbps\r\nWidth : 1 920 pixels\r\nHeight : 1 080 pixels\r\nDisplay aspect ratio : 16:9\r\nFrame rate mode : Constant\r\nFrame rate : 23.976 fps\r\nColor space : YUV\r\nChroma subsampling : 4:2:0\r\nBit depth : 8 bits\r\nScan type : Progressive\r\nBits/(Pixel*Frame) : 0.106\r\nStream size : 834 MiB (91%)\r\nLanguage : English\r\nEncoded date : UTC 2015-12-10 09:51:23\r\nTagged date : UTC 2015-12-10 09:53:59\r\nColor range : Limited\r\nColor primaries : BT.709\r\nTransfer characteristics : BT.709\r\nMatrix coefficients : BT.709\r\n\r\nAudio #1\r\nID : 1\r\nFormat : AAC\r\nFormat/Info : Advanced Audio Codec\r\nFormat profile : LC\r\nCodec ID : 40\r\nDuration : 22mn 7s\r\nBit rate mode : Variable\r\nBit rate : 126 Kbps\r\nMaximum bit rate : 185 Kbps\r\nChannel(s) : 2 channels\r\nChannel positions : Front: L R\r\nSampling rate : 48.0 KHz\r\nCompression mode : Lossy\r\nStream size : 19.9 MiB (2%)\r\nLanguage : English\r\nEncoded date : UTC 2015-12-10 09:51:23\r\nTagged date : UTC 2015-12-10 09:53:59\r\n\r\nAudio #2\r\nID : 3\r\nFormat : AC-3\r\nFormat/Info : Audio Coding 3\r\nMode extension : CM (complete main)\r\nFormat settings, Endianness : Big\r\nCodec ID : ac-3\r\nDuration : 22mn 7s\r\nBit rate mode : Constant\r\nBit rate : 384 Kbps\r\nChannel(s) : 6 channels\r\nChannel positions : Front: L C R, Side: L R, LFE\r\nSampling rate : 48.0 KHz\r\nBit depth : 16 bits\r\nCompression mode : Lossy\r\nStream size : 60.8 MiB (7%)\r\nLanguage : English\r\nEncoded date : UTC 2015-12-10 09:51:23\r\nTagged date : UTC 2015-12-10 09:53:59\r\n\r\nText\r\nID : 4-CC1\r\nFormat : EIA-608\r\nMuxing mode : Final Cut\r\nCodec ID : c608\r\nDuration : 21mn 28s\r\nBit rate mode : Constant\r\nStream size : 0.00 Byte (0%)\r\nLanguage : English\r\nEncoded date : UTC 2015-12-10 09:51:23\r\nTagged date : UTC 2015-12-10 09:51:30","torrent":{"xt":"urn:btih:5eee6061b06c5929a2713f534ea4ca2b5f3d5991","amp;dn":"Star+Wars+Rebels+S02E09+Legacy+1080P+WEB-DL+DD5+1+H+264","amp;tr":["udp%3A%2F%2Ftracker.leechers-paradise.org%3A6969","udp%3A%2F%2Fzer0day.ch%3A1337","udp%3A%2F%2Fopen.demonii.com%3A1337","udp%3A%2F%2Ftracker.coppersurfer.tk%3A6969","udp%3A%2F%2Fexodus.desync.com%3A6969"],"infoHash":"5eee6061b06c5929a2713f534ea4ca2b5f3d5991","infoHashBuffer":{"type":"Buffer","data":[94,238,96,97,176,108,89,41,162,113,63,83,78,164,202,43,95,61,89,145]},"announce":[],"urlList":[]}}